<svg xmlns="http://www.w3.org/2000/svg" viewBox="0 0 120 120" width="120" height="120">
  <!-- bg - green -->
  <circle cx="60" cy="60" r="58" fill="#34d399"/>
  <!-- face -->
  <circle cx="60" cy="55" r="28" fill="#8b6c4a"/>
  <!-- short fade haircut -->
  <path d="M34 46 Q36 20 60 18 Q84 20 86 46 L84 40 Q80 24 60 22 Q40 24 36 40 Z" fill="#1a1a2e"/>
  <!-- clean shave, professional -->
  <!-- friendly eyes -->
  <circle cx="48" cy="50" r="3" fill="#1a1a2e"/>
  <circle cx="72" cy="50" r="3" fill="#1a1a2e"/>
  <circle cx="49" cy="49" r="1.2" fill="#fff"/>
  <circle cx="73" cy="49" r="1.2" fill="#fff"/>
  <!-- raised optimistic eyebrows -->
  <path d="M42 43 Q48 39 54 42" fill="none" stroke="#1a1a2e" stroke-width="2" stroke-linecap="round"/>
  <path d="M66 42 Q72 39 78 43" fill="none" stroke="#1a1a2e" stroke-width="2" stroke-linecap="round"/>
  <!-- big friendly smile -->
  <path d="M46 60 Q60 72 74 60" fill="#fff" stroke="#6b4f36" stroke-width="1.5"/>
  <!-- polo shirt -->
  <path d="M36 78 Q36 95 60 98 Q84 95 84 78 L72 72 L60 76 L48 72 Z" fill="#2563eb"/>
  <!-- collar -->
  <path d="M48 72 L54 68 L60 72 L66 68 L72 72" fill="none" stroke="#1d4ed8" stroke-width="1.5"/>
</svg>
