<svg xmlns="http://www.w3.org/2000/svg" viewBox="0 0 120 120" width="120" height="120">
  <!-- bg - warm red -->
  <circle cx="60" cy="60" r="58" fill="#f87171"/>
  <!-- face -->
  <circle cx="60" cy="55" r="28" fill="#f0d4b0"/>
  <!-- messy french hair -->
  <path d="M32 48 Q34 20 60 18 Q86 20 88 48 L86 36 Q82 22 60 22 Q38 22 34 36 Z" fill="#5c4033"/>
  <path d="M38 30 Q42 24 50 26" fill="none" stroke="#5c4033" stroke-width="3" stroke-linecap="round"/>
  <path d="M70 26 Q78 24 82 30" fill="none" stroke="#5c4033" stroke-width="3" stroke-linecap="round"/>
  <!-- half-lidded bored eyes -->
  <ellipse cx="48" cy="50" rx="3.5" ry="2.5" fill="#3b2517"/>
  <ellipse cx="72" cy="50" rx="3.5" ry="2.5" fill="#3b2517"/>
  <circle cx="49" cy="49.5" r="1" fill="#fff"/>
  <circle cx="73" cy="49.5" r="1" fill="#fff"/>
  <!-- droopy eyelids - bored -->
  <path d="M43 47 L53 48" fill="none" stroke="#f0d4b0" stroke-width="2.5"/>
  <path d="M67 48 L77 47" fill="none" stroke="#f0d4b0" stroke-width="2.5"/>
  <!-- flat mouth - indifferent -->
  <line x1="50" y1="63" x2="70" y2="63" stroke="#c4956a" stroke-width="1.8" stroke-linecap="round"/>
  <!-- stubble -->
  <circle cx="45" cy="66" r="0.5" fill="#8b7355" opacity="0.3"/>
  <circle cx="50" cy="68" r="0.5" fill="#8b7355" opacity="0.3"/>
  <circle cx="55" cy="67" r="0.5" fill="#8b7355" opacity="0.3"/>
  <circle cx="65" cy="67" r="0.5" fill="#8b7355" opacity="0.3"/>
  <circle cx="70" cy="68" r="0.5" fill="#8b7355" opacity="0.3"/>
  <circle cx="75" cy="66" r="0.5" fill="#8b7355" opacity="0.3"/>
  <!-- turtleneck -->
  <path d="M36 78 Q36 95 60 98 Q84 95 84 78 L72 74 L60 76 L48 74 Z" fill="#1a1a2e"/>
  <path d="M48 74 Q60 78 72 74 Q72 70 60 72 Q48 70 48 74 Z" fill="#2d2d44"/>
</svg>
